<svg width="50" height="53" viewBox="0 0 50 53" fill="none" xmlns="http://www.w3.org/2000/svg">
<g clip-path="url(#clip0_1_224)">
<path fill-rule="evenodd" clip-rule="evenodd" d="M45.5399 16.8158L43.9004 18.4522C40.3484 15.3618 35.7939 13.6334 31.0584 13.6334C27.87 13.6334 24.6834 14.4516 21.9511 15.9056L28.8725 8.99697C29.4189 9.36004 30.0559 9.54243 30.6946 9.54243C31.6048 9.54243 32.5168 9.17936 33.2442 8.45151C34.7009 6.99752 34.7009 4.72363 33.2442 3.26963C32.515 2.54178 31.6048 2.17871 30.6946 2.17871C29.7844 2.17871 28.8725 2.54178 28.145 3.26963C26.9615 4.54294 26.7788 6.36001 27.5985 7.72366L18.855 16.451L17.2156 14.8146L12.7533 19.2687L14.3927 20.9051L5.46642 29.8148C4.91995 29.4517 4.28297 29.2694 3.64428 29.2694C2.73407 29.2694 1.82214 29.6324 1.09465 30.3603C-0.362036 31.8143 -0.362036 34.0882 1.09465 35.5422C1.82385 36.178 2.73407 36.5427 3.64428 36.5427C4.5545 36.5427 5.46642 36.1797 6.19391 35.4518C7.37737 34.2706 7.56009 32.4518 6.74038 30.9978L13.6618 24.0892C10.0192 31.0898 10.8389 39.8172 16.2114 45.998L14.572 47.7247L19.1265 52.1787L23.5888 47.7247L19.1265 43.2707L17.5776 44.8167C12.2956 38.6342 12.0224 29.7262 16.4847 23.1807L17.2139 23.9085L21.7683 19.4545L20.9486 18.7266C23.8637 16.6351 27.4158 15.5442 31.0584 15.5442C35.3396 15.5442 39.3459 17.0902 42.6248 19.8175L40.9854 21.3636L45.5399 25.8176L50.0021 21.3636L45.5399 16.8175V16.8158ZM20.9702 47.6596L19.0638 49.5659L17.1575 47.6596L19.0638 45.7532L20.9702 47.6596V47.6596ZM29.3226 4.62977C29.6851 4.26722 30.1396 4.08509 30.5941 4.08509C31.0485 4.08509 31.5013 4.26722 31.8655 4.62977C32.5923 5.35658 32.5923 6.44595 31.8655 7.17105C31.503 7.5336 31.0485 7.71573 30.5941 7.71573C30.1396 7.71573 29.6868 7.5336 29.3226 7.17105C28.5958 6.53616 28.5958 5.35488 29.3226 4.62977V4.62977ZM4.90214 34.1328C4.53958 34.4953 4.08511 34.6774 3.63065 34.6774C3.17618 34.6774 2.72341 34.4953 2.35916 34.1328C1.9966 33.8604 1.81448 33.4059 1.81448 32.8613C1.81448 32.4068 1.9966 31.954 2.35916 31.5898C2.72171 31.2255 3.17618 31.0451 3.63065 31.0451C4.08511 31.0451 4.53788 31.2272 4.90214 31.5898C5.62894 32.3166 5.62894 33.4962 4.90214 34.1311V34.1328ZM17.0672 21.3328L15.1609 19.4264L17.0672 17.52L18.9736 19.4264L17.0672 21.3328V21.3328ZM45.3906 23.2391L43.4843 21.3328L45.3906 19.4264L47.297 21.3328L45.3906 23.2391V23.2391Z" fill="#333333"/>
</g>
<defs>
<clipPath id="clip0_1_224">
<rect width="50" height="53" fill="white"/>
</clipPath>
</defs>
</svg>
